<svg xmlns="http://www.w3.org/2000/svg" viewBox="0 0 465.59 132.09"><defs><style>.cls-1{font-size:34.05px;}.cls-1,.cls-2{fill:#1d1d1b;font-family:CenturyGothic-Bold, Century Gothic;font-weight:700;}.cls-2{font-size:39.91px;}.cls-3,.cls-5{fill:gray;stroke:#5e5e5e;}.cls-3,.cls-4,.cls-5{stroke-miterlimit:10;}.cls-3{stroke-width:0.25px;}.cls-4{fill:#eba521;stroke:#bf7d11;}</style></defs><g id="Vrstva_2" data-name="Vrstva 2"><g id="Vrstva_1-2" data-name="Vrstva 1"><text class="cls-1" transform="translate(31.62 119.45)">INSTRUMENTS</text><text class="cls-2" transform="translate(297.66 79.65)">V KTOR</text><path class="cls-3" d="M287.15,126.55l0,1.45,10.58.21c4.13,3.72,8.24,2.89,8.24,2.89,0,1.14,1.58.83,1.58.83,1.82,0,1.27-1.23,1.27-1.23v-4.36l0-.7-.05-4.36s.53-1.27-1.29-1.22c0,0-1.6-.29-1.56.84,0,0-4.12-.79-8.22,3l-10.57.31,0,1.45Z"/><line class="cls-3" x1="305.94" y1="131.03" x2="305.94" y2="121.13"/><line class="cls-3" x1="297.61" y1="124.01" x2="297.61" y2="128.23"/><path class="cls-4" d="M166.09,30.39V78.16C180.87,42.56,344.62,45,344.62,45l82.55,0v-9.1l-82.76-.08S180.87,40.4,166.09,2.65V50.41"/><path class="cls-4" d="M436.42,92.3s28.67-.64,28.67-27.86c0,0,.76-28.95-28.67-28.95v9.87c26.05,0,23.51,37.59,0,37.59Z"/><rect class="cls-4" x="294.13" y="83.29" width="133.05" height="8.11"/><rect class="cls-4" x="29.17" y="83.29" width="264.96" height="8.11"/><path class="cls-4" d="M29.17,130.05S.5,129.52.5,107.12c0,0-.76-23.83,28.67-23.83v8.12c-26,0-23.51,30.94,0,30.94Z"/><rect class="cls-4" x="29.17" y="122.19" width="264.96" height="8.11"/><rect class="cls-4" x="287.48" y="121.78" width="3.64" height="8.92"/><rect class="cls-4" x="266.89" y="121.41" width="3.64" height="9.66"/><rect class="cls-4" x="266.89" y="82.52" width="3.64" height="9.66"/><rect class="cls-4" x="278.41" y="92.18" width="3.64" height="29.23"/><rect class="cls-4" x="254.02" y="92.38" width="3.64" height="29.03"/><rect class="cls-4" x="328.24" y="45.93" width="6.48" height="36.59"/><rect class="cls-5" x="291.34" y="82.17" width="5.57" height="10.36"/><path class="cls-5" d="M285.09,121.41a4.86,4.86,0,1,1-9.72,0Z"/><path class="cls-5" d="M285.09,92.38a4.86,4.86,0,1,0-9.72,0Z"/><path class="cls-5" d="M260.7,92.38c0-6.71-9.73-6.71-9.73,0Z"/><path class="cls-5" d="M260.7,121.41a4.87,4.87,0,1,1-9.73,0Z"/><path class="cls-5" d="M336.17,82.52a4.86,4.86,0,1,1-9.72,0Z"/><path class="cls-5" d="M336.17,45.93a4.86,4.86,0,1,0-9.72,0Z"/><polygon class="cls-5" points="427.18 82.84 436.42 82.34 436.42 92.65 427.18 91.86 427.18 82.84"/><polygon class="cls-5" points="427.18 35.4 436.42 35.05 436.42 45.85 427.18 45.41 427.18 35.4"/><rect class="cls-5" x="27.35" y="82.91" width="3.64" height="8.88"/><rect class="cls-5" x="27.35" y="121.8" width="3.64" height="8.88"/></g></g></svg>